# Blender v3.0.0 OBJ File: 'knif.blend'
# www.blender.org
o ĞšÑƒĞ±
v -0.121460 -0.299612 -1.000000
v -0.197039 -0.223394 -1.000000
v -0.174903 -0.277288 -1.000000
v -0.197039 0.223394 -1.000000
v -0.121460 0.299612 -1.000000
v -0.174903 0.277288 -1.000000
v 0.197039 -0.223394 -1.000000
v 0.121460 -0.299612 -1.000000
v 0.174903 -0.277288 -1.000000
v 0.121460 0.299612 -1.000000
v 0.197039 0.223394 -1.000000
v 0.174903 0.277288 -1.000000
v -0.240002 -0.287194 0.794648
v -0.163055 -0.364940 0.794648
v -0.217465 -0.342169 0.794648
v -0.163055 0.364940 0.794648
v -0.240002 0.287194 0.794648
v -0.217465 0.342169 0.794648
v 0.240002 0.287194 0.794648
v 0.163055 0.364940 0.794648
v 0.217465 0.342169 0.794648
v 0.163055 -0.364940 0.794648
v 0.240002 -0.287194 0.794648
v 0.217465 -0.342169 0.794648
v -0.240002 -0.286554 0.845441
v -0.162313 -0.364940 0.845441
v -0.217248 -0.341981 0.845441
v -0.199528 -0.244331 0.885915
v -0.120009 -0.324465 0.885915
v -0.176237 -0.300995 0.885915
v -0.228147 -0.273738 0.874061
v -0.149441 -0.353085 0.874061
v -0.205095 -0.329845 0.874061
v -0.120009 0.324465 0.885915
v -0.199528 0.244331 0.885915
v -0.176237 0.300994 0.885915
v -0.162313 0.364940 0.845441
v -0.240002 0.286554 0.845441
v -0.217248 0.341981 0.845441
v -0.149441 0.353085 0.874061
v -0.228147 0.273738 0.874061
v -0.205095 0.329845 0.874061
v 0.240002 0.286554 0.845441
v 0.162313 0.364940 0.845441
v 0.217248 0.341981 0.845441
v 0.199528 0.244331 0.885915
v 0.120009 0.324465 0.885915
v 0.176237 0.300995 0.885915
v 0.228147 0.273738 0.874061
v 0.149441 0.353085 0.874061
v 0.205095 0.329845 0.874061
v 0.120009 -0.324465 0.885915
v 0.199528 -0.244331 0.885915
v 0.176237 -0.300994 0.885915
v 0.162313 -0.364940 0.845441
v 0.240002 -0.286554 0.845441
v 0.217248 -0.341981 0.845441
v 0.149441 -0.353085 0.874061
v 0.228147 -0.273738 0.874061
v 0.205095 -0.329845 0.874061
v -0.197039 -0.223278 0.548274
v -0.121370 -0.299612 0.548274
v -0.174876 -0.277254 0.548274
v -0.139931 -0.328911 0.702368
v -0.216308 -0.251721 0.702368
v -0.193938 -0.306303 0.702368
v -0.202683 -0.231519 0.626151
v -0.126743 -0.308194 0.626151
v -0.180441 -0.285736 0.626151
v -0.216308 0.251721 0.702368
v -0.139931 0.328911 0.702368
v -0.193938 0.306303 0.702368
v -0.121370 0.299612 0.548274
v -0.197039 0.223278 0.548274
v -0.174876 0.277254 0.548274
v -0.126743 0.308194 0.626151
v -0.202683 0.231519 0.626151
v -0.180441 0.285736 0.626151
v 0.216308 -0.251721 0.702368
v 0.139931 -0.328911 0.702368
v 0.193938 -0.306303 0.702368
v 0.121370 -0.299612 0.548274
v 0.197039 -0.223278 0.548274
v 0.174876 -0.277254 0.548274
v 0.126743 -0.308194 0.626151
v 0.202683 -0.231519 0.626151
v 0.180441 -0.285736 0.626151
v 0.197039 0.223278 0.548274
v 0.121370 0.299612 0.548274
v 0.174876 0.277254 0.548274
v 0.139931 0.328911 0.702368
v 0.216308 0.251721 0.702368
v 0.193938 0.306303 0.702368
v 0.202683 0.231519 0.626151
v 0.126743 0.308194 0.626151
v 0.180441 0.285736 0.626151
v -0.000000 -0.223469 -3.878979
v 0.002516 0.033034 -3.596808
v 0.003623 0.022545 -3.596808
v 0.004081 -0.002779 -3.596808
v -0.004081 -0.002779 -3.596808
v -0.003623 0.022545 -3.596808
v -0.002516 0.033034 -3.596808
v 0.002516 -0.248528 -3.596808
v 0.004081 -0.212714 -3.596808
v 0.003623 -0.238038 -3.596808
v -0.002516 -0.248528 -3.596808
v -0.003623 -0.238038 -3.596808
v -0.004081 -0.212714 -3.596808
v -0.008624 -0.221798 -1.162852
v -0.007655 -0.275307 -1.162852
v -0.005316 -0.297471 -1.162852
v 0.007655 -0.275307 -1.162852
v 0.008624 -0.221797 -1.162852
v 0.005316 -0.297471 -1.162852
v -0.005316 0.297471 -1.162852
v -0.007655 0.275307 -1.162852
v -0.008624 0.221798 -1.162852
v 0.008624 0.221798 -1.162852
v 0.007655 0.275307 -1.162852
v 0.005316 0.297471 -1.162852
v -0.008624 -0.221798 -2.114005
v -0.007655 -0.275307 -2.114005
v -0.005316 -0.297471 -2.114005
v 0.007655 -0.275307 -2.114005
v 0.008624 -0.221798 -2.114005
v 0.005316 -0.297471 -2.114005
v -0.005316 0.297471 -2.114005
v -0.007655 0.275307 -2.114005
v -0.008624 0.221797 -2.114005
v 0.008624 0.221797 -2.114005
v 0.007655 0.275307 -2.114005
v 0.005316 0.297471 -2.114005
v -0.008624 -0.221798 -3.045399
v -0.007655 -0.275307 -3.045399
v -0.005316 -0.297471 -3.045399
v 0.007655 -0.275307 -3.045399
v 0.008624 -0.221798 -3.045399
v 0.005316 -0.297471 -3.045399
v -0.005316 0.297471 -3.045399
v -0.007655 0.275307 -3.045399
v -0.008624 0.221797 -3.045399
v 0.008624 0.221797 -3.045399
v 0.007655 0.275307 -3.045399
v 0.005316 0.297471 -3.045399
v -0.222495 -0.252254 -1.007513
v -0.244299 -0.276974 -1.038837
v -0.216853 -0.343795 -1.038837
v -0.197728 -0.313476 -1.007513
v -0.150592 -0.371473 -1.038837
v -0.137386 -0.338897 -1.007513
v 0.197728 -0.313476 -1.007513
v 0.216853 -0.343795 -1.038837
v 0.244299 -0.276974 -1.038837
v 0.222495 -0.252254 -1.007513
v 0.137386 -0.338897 -1.007513
v 0.150592 -0.371473 -1.038837
v -0.137386 0.338897 -1.007513
v -0.150592 0.371473 -1.038837
v -0.216853 0.343795 -1.038837
v -0.197728 0.313476 -1.007513
v -0.244299 0.276974 -1.038837
v -0.222495 0.252254 -1.007513
v 0.222495 0.252254 -1.007513
v 0.244299 0.276974 -1.038837
v 0.216853 0.343795 -1.038837
v 0.197728 0.313476 -1.007513
v 0.150592 0.371473 -1.038837
v 0.137386 0.338897 -1.007513
v -0.244299 -0.276974 -1.124015
v -0.209779 -0.265932 -1.155339
v -0.183573 -0.328909 -1.155339
v -0.216853 -0.343795 -1.124015
v -0.124236 -0.353130 -1.155339
v -0.150592 -0.371473 -1.124015
v 0.216853 -0.343795 -1.124015
v 0.183573 -0.328909 -1.155339
v 0.209779 -0.265932 -1.155339
v 0.244299 -0.276974 -1.124015
v 0.150592 -0.371473 -1.124015
v 0.124236 -0.353130 -1.155339
v -0.150592 0.371473 -1.124015
v -0.124236 0.353130 -1.155339
v -0.183573 0.328909 -1.155339
v -0.216853 0.343795 -1.124015
v -0.209779 0.265932 -1.155339
v -0.244299 0.276974 -1.124015
v 0.244299 0.276974 -1.124015
v 0.209779 0.265932 -1.155339
v 0.183573 0.328909 -1.155339
v 0.216853 0.343795 -1.124015
v 0.124236 0.353130 -1.155339
v 0.150592 0.371473 -1.124015
vt 0.774387 0.666259
vt 0.788945 0.777975
vt 0.768541 0.785560
vt 0.753133 0.663824
vt 0.356997 0.349262
vt 0.357421 0.401746
vt 0.020854 0.404866
vt 0.018489 0.352029
vt 0.762742 0.810592
vt 0.782411 0.880050
vt 0.774888 0.879167
vt 0.756436 0.814257
vt 0.757919 0.787327
vt 0.742503 0.664758
vt 0.831546 0.905479
vt 0.831546 0.839833
vt 0.850111 0.839833
vt 0.850111 0.905479
vt 0.786347 0.436109
vt 0.758898 0.553655
vt 0.748569 0.551686
vt 0.776020 0.433603
vt 0.805170 0.446152
vt 0.780125 0.553671
vt 0.357199 0.029085
vt 0.356643 0.125454
vt 0.017608 0.123918
vt 0.018880 0.026301
vt 0.773100 0.807931
vt 0.793812 0.876918
vt 0.755526 0.575561
vt 0.752010 0.641433
vt 0.741633 0.641420
vt 0.745216 0.574559
vt 0.775990 0.578930
vt 0.773225 0.640318
vt 0.509597 0.194423
vt 0.574875 0.194326
vt 0.568341 0.201103
vt 0.516152 0.201160
vt 0.515940 0.342550
vt 0.503662 0.337334
vt 0.498682 0.324996
vt 0.498869 0.218646
vt 0.503907 0.206276
vt 0.580599 0.206191
vt 0.585660 0.218550
vt 0.585637 0.324905
vt 0.580605 0.337289
vt 0.568348 0.342423
vt 0.574921 0.349163
vt 0.509498 0.349370
vt 0.004023 0.406779
vt 0.001580 0.352155
vt 0.491933 0.331487
vt 0.492105 0.212103
vt 0.750845 0.786423
vt 0.735747 0.667347
vt 0.592413 0.212006
vt 0.592413 0.331445
vt 0.742378 0.548471
vt 0.768911 0.433905
vt 0.735035 0.639337
vt 0.738289 0.575869
vt 0.794100 0.803743
vt 0.814728 0.864719
vt 0.793737 0.581484
vt 0.791345 0.639709
vt 0.812024 0.799707
vt 0.831203 0.855926
vt 0.000748 0.124749
vt 0.002049 0.024863
vt 0.001287 0.327541
vt 0.000649 0.227598
vt 0.017455 0.228511
vt 0.018204 0.326375
vt 0.792511 0.667346
vt 0.806328 0.772497
vt 0.821208 0.453947
vt 0.797889 0.554616
vt 0.017341 0.149565
vt 0.017357 0.202832
vt 0.000442 0.203154
vt 0.000552 0.149160
vt 0.356559 0.150487
vt 0.356494 0.202963
vt 0.587240 0.343889
vt 0.587217 0.199573
vt 0.753561 0.800341
vt 0.760790 0.798870
vt 0.742500 0.652952
vt 0.735232 0.653193
vt 0.497287 0.199677
vt 0.509219 0.349182
vt 0.497029 0.343861
vt 0.740205 0.562161
vt 0.747320 0.563219
vt 0.774381 0.407122
vt 0.781526 0.409779
vt 0.779541 0.422229
vt 0.772518 0.420700
vt 0.751992 0.652561
vt 0.770254 0.796915
vt 0.789095 0.424753
vt 0.793159 0.412623
vt 0.756625 0.564606
vt 0.790264 0.791180
vt 0.808126 0.786382
vt 0.790888 0.653520
vt 0.772545 0.653255
vt 0.001035 0.339889
vt 0.018159 0.339254
vt 0.017251 0.215640
vt 0.000171 0.215348
vt 0.776813 0.566177
vt 0.794782 0.567942
vt 0.814654 0.421600
vt 0.831203 0.429398
vt 0.824916 0.441115
vt 0.808519 0.433376
vt 0.000274 0.137023
vt 0.017322 0.136782
vt 0.002895 0.000171
vt 0.019578 0.000881
vt 0.019017 0.013510
vt 0.002016 0.012479
vt 0.356817 0.324263
vt 0.356904 0.336800
vt 0.357307 0.016557
vt 0.357421 0.004103
vt 0.356498 0.215441
vt 0.356510 0.227993
vt 0.356597 0.138007
vt 0.476017 0.214115
vt 0.481466 0.227646
vt 0.437103 0.235545
vt 0.437428 0.223574
vt 0.831546 0.590654
vt 0.831546 0.575003
vt 0.850111 0.575003
vt 0.850111 0.590654
vt 0.831546 0.438518
vt 0.831546 0.422773
vt 0.850111 0.422773
vt 0.850111 0.438518
vt 0.831546 0.656301
vt 0.850111 0.656301
vt 0.831546 0.687697
vt 0.831546 0.671952
vt 0.850111 0.671952
vt 0.850111 0.687697
vt 0.831546 0.808436
vt 0.850111 0.808436
vt 0.831546 0.559258
vt 0.850111 0.559258
vt 0.496106 0.161838
vt 0.506874 0.154933
vt 0.512902 0.162159
vt 0.501246 0.169640
vt 0.831546 0.407122
vt 0.850111 0.407122
vt 0.831546 0.824181
vt 0.850111 0.824181
vt 0.481415 0.341673
vt 0.437534 0.333888
vt 0.431824 0.173098
vt 0.444536 0.174361
vt 0.443520 0.183559
vt 0.429748 0.182273
vt 0.511082 0.142833
vt 0.511103 0.046234
vt 0.516974 0.040184
vt 0.516867 0.148860
vt 0.382646 0.053842
vt 0.376203 0.064974
vt 0.367484 0.061291
vt 0.374483 0.049237
vt 0.378019 0.077736
vt 0.422544 0.164136
vt 0.420081 0.172253
vt 0.370066 0.075013
vt 0.506984 0.034097
vt 0.512968 0.026907
vt 0.423411 0.018790
vt 0.420312 0.009780
vt 0.496202 0.027351
vt 0.501133 0.019285
vt 0.604710 0.537980
vt 0.604705 0.541483
vt 0.403808 0.541812
vt 0.403815 0.538255
vt 0.078772 0.421154
vt 0.078972 0.422806
vt 0.000171 0.434372
vt 0.464020 0.360995
vt 0.411295 0.366143
vt 0.435266 0.351004
vt 0.437606 0.350720
vt 0.476066 0.355147
vt 0.437821 0.345737
vt 0.409151 0.202974
vt 0.463809 0.208267
vt 0.437226 0.218548
vt 0.434864 0.218373
vt 0.398220 0.362795
vt 0.390276 0.350616
vt 0.432122 0.334371
vt 0.434103 0.346134
vt 0.370650 0.224813
vt 0.381269 0.216328
vt 0.409678 0.221880
vt 0.410358 0.226738
vt 0.368203 0.239056
vt 0.412881 0.238342
vt 0.609905 0.792744
vt 0.605053 0.792744
vt 0.605070 0.589965
vt 0.609931 0.589969
vt 0.604675 0.416692
vt 0.604645 0.427996
vt 0.403760 0.427342
vt 0.403786 0.416053
vt 0.734693 0.999797
vt 0.729839 0.999798
vt 0.729790 0.792671
vt 0.734643 0.792671
vt 0.604702 0.533272
vt 0.403810 0.533601
vt 0.718185 0.999801
vt 0.621603 0.999825
vt 0.621557 0.792742
vt 0.718134 0.792672
vt 0.604689 0.411990
vt 0.403802 0.411326
vt 0.604682 0.521969
vt 0.403802 0.522400
vt 0.609951 0.999828
vt 0.604710 0.408483
vt 0.403826 0.407867
vt 0.605099 0.999829
vt 0.729846 0.589847
vt 0.718215 0.589819
vt 0.670033 0.469631
vt 0.675596 0.469637
vt 0.211800 0.541911
vt 0.212229 0.539105
vt 0.208415 0.426647
vt 0.208298 0.414860
vt 0.734693 0.589858
vt 0.212072 0.534296
vt 0.621605 0.589974
vt 0.208263 0.409940
vt 0.211555 0.522943
vt 0.208163 0.407122
vt 0.360023 0.073786
vt 0.357763 0.057850
vt 0.365514 0.043834
vt 0.520039 0.019489
vt 0.525179 0.034549
vt 0.506910 0.010479
vt 0.442741 0.193983
vt 0.426904 0.192127
vt 0.415344 0.181078
vt 0.525179 0.154518
vt 0.519918 0.169618
vt 0.506703 0.178455
vt 0.415926 0.000171
vt 0.485662 0.209344
vt 0.491591 0.224722
vt 0.471005 0.201012
vt 0.357763 0.238252
vt 0.360504 0.222361
vt 0.372347 0.211639
vt 0.485645 0.359854
vt 0.471184 0.368049
vt 0.491591 0.344571
vt 0.389704 0.369332
vt 0.380938 0.355431
vt 0.405673 0.374659
vt 0.404103 0.194326
vt 0.615805 0.469450
vt 0.618123 0.469449
vt 0.083364 0.493639
vt 0.084263 0.491836
vt 0.079340 0.431887
vt 0.079070 0.425481
vt 0.678025 0.469643
vt 0.083994 0.489181
vt 0.623688 0.469445
vt 0.083322 0.483078
vt 0.621101 0.407122
vn -0.9686 0.0000 -0.2487
vn 0.0000 -1.0000 0.0000
vn 0.0000 -0.9239 0.3827
vn -1.0000 0.0000 0.0000
vn 1.0000 0.0000 0.0000
vn 0.9686 0.0000 -0.2487
vn 0.0000 1.0000 -0.0000
vn 0.0000 0.9315 -0.3637
vn 0.0000 0.3827 0.9239
vn -0.0000 0.0000 1.0000
vn 0.0000 -0.3827 0.9239
vn 0.0000 -0.9940 -0.1095
vn 0.3827 0.0000 0.9239
vn -0.9239 0.0000 0.3827
vn -0.3827 0.0000 0.9239
vn 0.9239 0.0000 0.3827
vn 0.0000 0.9239 0.3827
vn 0.0000 -0.9315 -0.3637
vn 0.0000 0.9650 -0.2623
vn 0.0000 -0.9650 -0.2623
vn 0.9974 0.0000 -0.0723
vn -0.9974 0.0000 -0.0723
vn -0.9844 0.0000 -0.1760
vn 0.9844 0.0000 -0.1760
vn 0.0000 0.9940 -0.1095
vn -0.1154 -0.2765 0.9541
vn -0.2778 -0.1141 0.9538
vn -0.1154 0.2765 0.9541
vn -0.2778 0.1141 0.9538
vn -0.3370 -0.8067 0.4855
vn -0.8093 -0.3324 0.4843
vn -0.3370 0.8067 0.4855
vn -0.8093 0.3324 0.4843
vn 0.1154 0.2765 0.9541
vn 0.2778 0.1141 0.9538
vn 0.1154 -0.2765 0.9541
vn 0.2778 -0.1141 0.9538
vn 0.3370 0.8067 0.4855
vn 0.8093 0.3324 0.4843
vn 0.3370 -0.8067 0.4855
vn 0.8093 -0.3324 0.4843
vn -0.3858 0.9226 0.0053
vn -0.9252 0.3795 0.0051
vn -0.3858 -0.9226 0.0053
vn -0.9252 -0.3795 0.0051
vn 0.9252 -0.3795 0.0051
vn 0.3858 -0.9226 0.0053
vn 0.9252 0.3795 0.0051
vn 0.3858 0.9226 0.0053
vn -0.3679 -0.8793 -0.3025
vn -0.8941 -0.3666 -0.2571
vn -0.3679 0.8793 -0.3025
vn -0.8941 0.3666 -0.2571
vn -0.3826 -0.9151 -0.1271
vn -0.9198 -0.3775 -0.1067
vn -0.3826 0.9151 -0.1271
vn -0.9198 0.3775 -0.1067
vn 0.3679 0.8793 -0.3025
vn 0.8941 0.3666 -0.2571
vn 0.3679 -0.8793 -0.3025
vn 0.8941 -0.3666 -0.2571
vn 0.3826 0.9151 -0.1271
vn 0.9198 0.3775 -0.1067
vn 0.3826 -0.9151 -0.1271
vn 0.9198 -0.3775 -0.1067
vn -0.9250 -0.3799 0.0000
vn -0.3855 -0.9227 0.0000
vn 0.9250 -0.3799 0.0000
vn 0.3855 -0.9227 0.0000
vn -0.3855 0.9227 0.0000
vn -0.9250 0.3799 0.0000
vn -0.8640 -0.3541 -0.3579
vn -0.3512 -0.8390 -0.4156
vn 0.8640 -0.3541 -0.3579
vn 0.3512 -0.8390 -0.4156
vn -0.3512 0.8390 -0.4156
vn -0.8640 0.3541 -0.3579
vn 0.9250 0.3799 0.0000
vn 0.3855 0.9227 0.0000
vn 0.8640 0.3541 -0.3579
vn 0.3512 0.8390 -0.4156
vn -0.0375 -0.0088 -0.9993
vn 0.3854 0.9227 0.0000
vn 0.0677 0.1613 0.9846
vn 0.3854 -0.9227 0.0000
vn -0.3854 0.9227 0.0000
vn -0.3854 -0.9227 0.0000
vn -0.0373 0.0000 -0.9993
vn -0.0677 0.1613 0.9846
vn 0.2831 0.0000 0.9591
vn -0.0677 -0.1613 0.9846
vn -0.2831 0.0000 0.9591
vn -0.1964 0.0800 0.9773
vn 0.1964 -0.0800 0.9773
vn 0.0000 -0.1878 0.9822
vn 0.1964 0.0800 0.9773
vn 0.0677 -0.1613 0.9846
vn 0.0000 0.1878 0.9822
vn -0.1964 -0.0800 0.9773
vn 0.0000 -0.9961 -0.0885
vn 0.0000 0.1338 -0.9910
vn -0.0341 0.0453 -0.9984
vn 0.0000 -0.1338 -0.9910
vn -0.0341 -0.0453 -0.9984
vn 0.0375 0.0088 -0.9993
vn 0.0341 -0.0453 -0.9984
vn 0.0375 -0.0088 -0.9993
vn 0.0341 0.0453 -0.9984
vn 0.0373 0.0000 -0.9993
vn -0.0375 0.0088 -0.9993
vn 0.9945 -0.1050 0.0000
vn -0.9998 -0.0181 0.0000
vn 0.9945 0.1050 -0.0000
vn -0.9945 0.1050 -0.0000
vn -0.9945 -0.1050 0.0000
vn -0.9998 0.0181 -0.0000
vn 0.9998 -0.0181 0.0000
vn 0.9998 0.0181 -0.0000
vn 0.9997 0.0181 -0.0156
vn -0.6758 -0.2756 0.6836
vn -0.2569 -0.6125 0.7475
vn 0.6758 -0.2756 0.6836
vn 0.2569 -0.6125 0.7475
vn -0.2569 0.6125 0.7475
vn -0.6758 0.2756 0.6836
vn 0.6758 0.2756 0.6836
vn 0.2569 0.6125 0.7475
vn -0.8207 0.0000 0.5713
vn 0.0000 -0.6931 0.7208
vn 0.0000 0.6931 0.7208
vn 0.8207 0.0000 0.5713
vn -0.6039 -0.2496 -0.7569
vn -0.2904 -0.7029 -0.6493
vn 0.6039 -0.2496 -0.7569
vn 0.2904 -0.7029 -0.6493
vn -0.2904 0.7029 -0.6493
vn -0.6039 0.2496 -0.7569
vn 0.6039 0.2496 -0.7569
vn 0.2904 0.7029 -0.6493
vn -0.6720 0.0000 -0.7405
vn 0.0000 -0.8629 -0.5053
vn 0.0000 0.8629 -0.5053
vn 0.6720 0.0000 -0.7405
vn 0.9944 -0.1049 -0.0144
vn 0.0000 0.9017 -0.4324
vn -0.9998 -0.0181 -0.0085
vn 0.9930 0.1048 -0.0553
vn -0.9930 0.1048 -0.0553
vn 1.0000 0.0000 -0.0082
vn -0.9944 -0.1049 -0.0144
vn -1.0000 0.0000 -0.0082
vn -0.9997 0.0181 -0.0156
vn 0.9998 -0.0181 -0.0085
vn 0.0000 -0.9961 -0.0884
vn 0.9994 0.0181 -0.0286
vn 0.9997 -0.0181 -0.0138
vn -0.9943 -0.1049 -0.0182
vn 0.0000 0.7400 -0.6726
vn -0.9994 0.0181 -0.0286
vn 0.9891 0.1044 -0.1037
vn -0.9997 -0.0181 -0.0138
vn 0.9943 -0.1049 -0.0182
vn -0.9999 0.0000 -0.0145
vn -0.9891 0.1044 -0.1037
vn 0.9999 0.0000 -0.0145
s off
f 70/1/1 65/2/1 13/3/1 17/4/1
f 1/5/2 8/6/2 82/7/2 62/8/2
f 26/9/3 55/10/3 58/11/3 32/12/3
f 17/4/4 13/3/4 25/13/4 38/14/4
f 157/15/2 150/16/2 175/17/2 180/18/2
f 23/19/5 19/20/5 43/21/5 56/22/5
f 79/23/6 92/24/6 19/20/6 23/19/6
f 7/25/5 11/26/5 88/27/5 83/28/5
f 14/29/2 22/30/2 55/10/2 26/9/2
f 20/31/7 16/32/7 37/33/7 44/34/7
f 91/35/8 71/36/8 16/32/8 20/31/8
f 50/37/9 40/38/9 34/39/9 47/40/9
f 52/41/10 54/42/10 53/43/10 46/44/10 48/45/10 47/40/10 34/39/10 36/46/10 35/47/10 28/48/10 30/49/10 29/50/10
f 32/51/11 58/52/11 52/41/11 29/50/11
f 62/8/12 82/7/12 85/53/12 68/54/12
f 46/44/13 53/43/13 59/55/13 49/56/13
f 31/57/14 41/58/14 38/14/14 25/13/14
f 28/48/15 35/47/15 41/59/15 31/60/15
f 49/61/16 59/62/16 56/22/16 43/21/16
f 44/34/17 37/33/17 40/63/17 50/64/17
f 64/65/18 80/66/18 22/30/18 14/29/18
f 95/67/19 76/68/19 71/36/19 91/35/19
f 68/69/20 85/70/20 80/66/20 64/65/20
f 94/71/21 86/72/21 83/28/21 88/27/21
f 67/73/22 77/74/22 74/75/22 61/76/22
f 65/2/23 70/1/23 77/77/23 67/78/23
f 92/24/24 79/23/24 86/79/24 94/80/24
f 89/81/25 73/82/25 76/83/25 95/84/25
f 10/85/7 5/86/7 73/82/7 89/81/7
f 32/51/26 29/50/26 30/49/26 33/87/26
f 33/87/27 30/49/27 28/48/27 31/60/27
f 34/39/28 40/38/28 42/88/28 36/46/28
f 36/46/29 42/88/29 41/59/29 35/47/29
f 26/9/30 32/12/30 33/89/30 27/90/30
f 27/90/31 33/89/31 31/57/31 25/13/31
f 40/63/32 37/33/32 39/91/32 42/92/32
f 42/92/33 39/91/33 38/14/33 41/58/33
f 50/37/34 47/40/34 48/45/34 51/93/34
f 51/93/35 48/45/35 46/44/35 49/56/35
f 52/41/36 58/94/36 60/95/36 54/42/36
f 54/42/37 60/95/37 59/55/37 53/43/37
f 44/34/38 50/64/38 51/96/38 45/97/38
f 45/97/39 51/96/39 49/61/39 43/21/39
f 58/98/40 55/99/40 57/100/40 60/101/40
f 60/101/41 57/100/41 56/22/41 59/62/41
f 37/33/42 16/32/42 18/102/42 39/91/42
f 39/91/43 18/102/43 17/4/43 38/14/43
f 14/29/44 26/9/44 27/90/44 15/103/44
f 15/103/45 27/90/45 25/13/45 13/3/45
f 23/19/46 56/22/46 57/100/46 24/104/46
f 24/104/47 57/100/47 55/99/47 22/105/47
f 43/21/48 19/20/48 21/106/48 45/97/48
f 45/97/49 21/106/49 20/31/49 44/34/49
f 68/69/50 64/65/50 66/107/50 69/108/50
f 69/108/51 66/107/51 65/2/51 67/78/51
f 71/36/52 76/68/52 78/109/52 72/110/52
f 72/110/53 78/109/53 77/77/53 70/1/53
f 62/8/54 68/54/54 69/111/54 63/112/54
f 63/112/55 69/111/55 67/73/55 61/76/55
f 76/83/56 73/82/56 75/113/56 78/114/56
f 78/114/57 75/113/57 74/75/57 77/74/57
f 95/67/58 91/35/58 93/115/58 96/116/58
f 96/116/59 93/115/59 92/24/59 94/80/59
f 80/117/60 85/118/60 87/119/60 81/120/60
f 81/120/61 87/119/61 86/79/61 79/23/61
f 89/81/62 95/84/62 96/121/62 90/122/62
f 90/122/63 96/121/63 94/71/63 88/27/63
f 85/123/64 82/124/64 84/125/64 87/126/64
f 87/126/65 84/125/65 83/28/65 86/72/65
f 61/76/66 2/127/66 3/128/66 63/112/66
f 63/112/67 3/128/67 1/5/67 62/8/67
f 7/25/68 83/28/68 84/125/68 9/129/68
f 9/129/69 84/125/69 82/124/69 8/130/69
f 73/82/70 5/86/70 6/131/70 75/113/70
f 75/113/71 6/131/71 4/132/71 74/75/71
f 13/3/72 65/2/72 66/107/72 15/103/72
f 15/103/73 66/107/73 64/65/73 14/29/73
f 79/23/74 23/19/74 24/104/74 81/120/74
f 81/120/75 24/104/75 22/105/75 80/117/75
f 16/32/76 71/36/76 72/110/76 18/102/76
f 18/102/77 72/110/77 70/1/77 17/4/77
f 88/27/78 11/26/78 12/133/78 90/122/78
f 90/122/79 12/133/79 10/85/79 89/81/79
f 19/20/80 92/24/80 93/115/80 21/106/80
f 21/106/81 93/115/81 91/35/81 20/31/81
f 61/76/4 74/75/4 4/132/4 2/127/4
f 172/134/82 171/135/82 110/136/82 111/137/82
f 168/138/83 166/139/83 191/140/83 193/141/83
f 154/142/68 153/143/68 176/144/68 179/145/68
f 159/146/7 168/138/7 193/141/7 182/147/7
f 162/148/71 160/149/71 185/150/71 187/151/71
f 147/152/4 162/148/4 187/151/4 170/153/4
f 165/154/5 154/142/5 179/145/5 188/155/5
f 10/156/84 12/157/84 167/158/84 169/159/84
f 153/143/85 157/160/85 180/161/85 176/144/85
f 160/149/86 159/146/86 182/147/86 185/150/86
f 150/16/87 148/162/87 173/163/87 175/17/87
f 166/139/78 165/154/78 188/155/78 191/140/78
f 171/135/88 186/164/88 118/165/88 110/136/88
f 6/166/89 5/167/89 158/168/89 161/169/89
f 11/170/90 7/171/90 155/172/90 164/173/90
f 1/174/91 3/175/91 149/176/91 151/177/91
f 2/178/92 4/179/92 163/180/92 146/181/92
f 4/179/93 6/166/93 161/169/93 163/180/93
f 7/171/94 9/182/94 152/183/94 155/172/94
f 8/184/95 1/174/95 151/177/95 156/185/95
f 12/157/96 11/170/96 164/173/96 167/158/96
f 9/182/97 8/186/97 156/187/97 152/183/97
f 5/167/98 10/156/98 169/159/98 158/168/98
f 3/175/99 2/178/99 146/181/99 149/176/99
f 116/188/7 121/189/7 133/190/7 128/191/7
f 104/192/100 107/193/100 97/194/100
f 183/195/101 192/196/101 121/197/101 116/198/101
f 184/199/102 183/195/102 116/198/102 117/200/102
f 181/201/103 174/202/103 112/203/103 115/204/103
f 174/202/104 172/134/104 111/137/104 112/203/104
f 190/205/105 189/206/105 119/207/105 120/208/105
f 177/209/106 181/210/106 115/211/106 113/212/106
f 178/213/107 177/209/107 113/212/107 114/214/107
f 192/196/108 190/205/108 120/208/108 121/197/108
f 189/206/109 178/213/109 114/214/109 119/207/109
f 186/164/110 184/199/110 117/200/110 118/165/110
f 125/215/111 127/216/111 139/217/111 137/218/111
f 111/219/112 110/220/112 122/221/112 123/222/112
f 121/223/113 120/224/113 132/225/113 133/226/113
f 117/227/114 116/188/114 128/191/114 129/228/114
f 119/229/5 114/230/5 126/231/5 131/232/5
f 112/233/115 111/219/115 123/222/115 124/234/115
f 110/220/4 118/235/4 130/236/4 122/221/4
f 118/235/116 117/227/116 129/228/116 130/236/116
f 114/230/117 113/237/117 125/215/117 126/231/117
f 115/238/2 112/233/2 124/234/2 127/239/2
f 120/224/118 119/229/118 131/232/118 132/225/118
f 113/237/111 115/240/111 127/216/111 125/215/111
f 144/241/119 143/242/119 100/243/119 99/244/119
f 128/191/7 133/190/7 145/245/7 140/246/7
f 123/222/112 122/221/112 134/247/112 135/248/112
f 133/226/113 132/225/113 144/241/113 145/249/113
f 129/228/114 128/191/114 140/246/114 141/250/114
f 131/232/5 126/231/5 138/251/5 143/242/5
f 124/234/115 123/222/115 135/248/115 136/252/115
f 122/221/4 130/236/4 142/253/4 134/247/4
f 130/236/116 129/228/116 141/250/116 142/253/116
f 126/231/117 125/215/117 137/218/117 138/251/117
f 127/239/2 124/234/2 136/252/2 139/254/2
f 132/225/118 131/232/118 143/242/118 144/241/118
f 147/255/120 148/256/120 149/176/120 146/181/120
f 148/256/121 150/257/121 151/177/121 149/176/121
f 153/258/122 154/259/122 155/172/122 152/183/122
f 157/260/123 153/258/123 152/183/123 156/187/123
f 159/261/124 160/262/124 161/169/124 158/168/124
f 160/262/125 162/263/125 163/180/125 161/169/125
f 165/264/126 166/265/126 167/158/126 164/173/126
f 166/265/127 168/266/127 169/159/127 167/158/127
f 162/263/128 147/255/128 146/181/128 163/180/128
f 156/185/129 151/177/129 150/257/129 157/267/129
f 158/168/130 169/159/130 168/266/130 159/261/130
f 164/173/131 155/172/131 154/259/131 165/264/131
f 171/135/132 172/134/132 173/268/132 170/269/132
f 172/134/133 174/202/133 175/270/133 173/268/133
f 177/209/134 178/213/134 179/271/134 176/272/134
f 181/210/135 177/209/135 176/272/135 180/273/135
f 183/195/136 184/199/136 185/274/136 182/275/136
f 184/199/137 186/164/137 187/276/137 185/274/137
f 189/206/138 190/205/138 191/277/138 188/278/138
f 190/205/139 192/196/139 193/279/139 191/277/139
f 186/164/140 171/135/140 170/269/140 187/276/140
f 180/280/141 175/270/141 174/202/141 181/201/141
f 182/275/142 193/279/142 192/196/142 183/195/142
f 188/278/143 179/271/143 178/213/143 189/206/143
f 148/162/66 147/152/66 170/153/66 173/163/66
f 137/218/144 139/217/144 104/281/144 106/282/144
f 140/246/145 145/245/145 98/283/145 103/284/145
f 135/248/146 134/247/146 109/285/146 108/286/146
f 145/249/147 144/241/147 99/244/147 98/287/147
f 141/250/148 140/246/148 103/284/148 102/288/148
f 143/242/149 138/251/149 105/289/149 100/243/149
f 136/252/150 135/248/150 108/286/150 107/193/150
f 134/247/151 142/253/151 101/290/151 109/285/151
f 142/253/152 141/250/152 102/288/152 101/290/152
f 138/251/153 137/218/153 106/282/153 105/289/153
f 139/254/154 136/252/154 107/193/154 104/192/154
f 99/244/155 100/243/155 97/291/155
f 105/289/156 106/282/156 97/291/156
f 107/193/157 108/286/157 97/194/157
f 103/284/158 98/283/158 97/194/158
f 101/290/159 102/288/159 97/194/159
f 98/287/160 99/244/160 97/291/160
f 108/286/161 109/285/161 97/194/161
f 106/282/162 104/281/162 97/291/162
f 109/285/163 101/290/163 97/194/163
f 102/288/164 103/284/164 97/194/164
f 100/243/165 105/289/165 97/291/165
