# Blender v3.0.0 OBJ File: 'cartridge.blend'
# www.blender.org
o Цилиндр
v 0.000000 -1.557979 -1.000000
v 0.000000 1.557979 -1.000000
v 0.464723 -1.557979 -0.885456
v 0.464723 1.557979 -0.885456
v 0.822984 -1.557979 -0.568065
v 0.822984 1.557979 -0.568065
v 0.992709 -1.557979 -0.120537
v 0.992709 1.557979 -0.120537
v 0.935016 -1.557979 0.354605
v 0.935016 1.557979 0.354605
v 0.663123 -1.557979 0.748511
v 0.663123 1.557979 0.748511
v 0.239316 -1.557979 0.970942
v 0.239316 1.557979 0.970942
v -0.239316 -1.557979 0.970942
v -0.239316 1.557979 0.970942
v -0.663123 -1.557979 0.748511
v -0.663123 1.557979 0.748511
v -0.935016 -1.557979 0.354605
v -0.935016 1.557979 0.354605
v -0.992709 -1.557979 -0.120537
v -0.992709 1.557979 -0.120537
v -0.822984 -1.557979 -0.568065
v -0.822984 1.557979 -0.568065
v -0.464723 -1.557979 -0.885456
v -0.464723 1.557979 -0.885456
v 0.422658 2.258214 -0.805307
v 0.000000 2.258214 -0.909482
v 0.748489 2.258214 -0.516645
v 0.902851 2.258214 -0.109626
v 0.850381 2.258214 0.322507
v 0.603098 2.258214 0.680757
v 0.217653 2.258214 0.883054
v -0.217653 2.258214 0.883054
v -0.603098 2.258214 0.680757
v -0.850381 2.258214 0.322507
v -0.902851 2.258214 -0.109626
v -0.748489 2.258214 -0.516645
v -0.422657 2.258214 -0.805307
v 0.321144 2.879594 -0.611889
v 0.000000 2.879594 -0.691044
v 0.568718 2.879594 -0.392558
v 0.686005 2.879594 -0.083296
v 0.646137 2.879594 0.245047
v 0.458247 2.879594 0.517254
v 0.165378 2.879594 0.670963
v -0.165377 2.879594 0.670963
v -0.458247 2.879594 0.517254
v -0.646137 2.879594 0.245048
v -0.686005 2.879594 -0.083296
v -0.568718 2.879594 -0.392557
v -0.321144 2.879594 -0.611889
v 0.071083 3.552493 -0.135436
v 0.000000 3.552493 -0.152957
v 0.125881 3.552493 -0.086889
v 0.151842 3.552493 -0.018437
v 0.143017 3.552493 0.054239
v 0.101429 3.552493 0.114490
v 0.036605 3.552493 0.148512
v -0.036605 3.552493 0.148512
v -0.101429 3.552493 0.114490
v -0.143017 3.552493 0.054239
v -0.151841 3.552493 -0.018437
v -0.125881 3.552493 -0.086889
v -0.071082 3.552493 -0.135436
vt 0.001122 0.744656
vt 0.437378 0.737638
vt 0.440524 0.804505
vt 0.002095 0.812936
vt 0.444855 0.872598
vt 0.003327 0.881307
vt 0.012803 0.000142
vt 0.448668 0.016304
vt 0.443199 0.083211
vt 0.010321 0.067094
vt 0.439275 0.148907
vt 0.007942 0.134570
vt 0.436507 0.214121
vt 0.005814 0.202050
vt 0.434594 0.279188
vt 0.003988 0.269573
vt 0.433349 0.344266
vt 0.002498 0.337163
vt 0.432665 0.409422
vt 0.001361 0.404834
vt 0.432490 0.474688
vt 0.000588 0.472596
vt 0.432818 0.540084
vt 0.000182 0.540455
vt 0.433682 0.605647
vt 0.000142 0.608416
vt 0.538155 0.154335
vt 0.535709 0.217648
vt 0.435159 0.671449
vt 0.000461 0.676482
vt 0.609233 0.706320
vt 0.564826 0.656196
vt 0.548800 0.591176
vt 0.564826 0.526156
vt 0.609233 0.476031
vt 0.671847 0.452285
vt 0.738325 0.460357
vt 0.793437 0.498397
vt 0.824557 0.557693
vt 0.824557 0.624659
vt 0.793437 0.683954
vt 0.738325 0.721995
vt 0.671847 0.730067
vt 0.965057 0.094460
vt 0.987513 0.149662
vt 0.902422 0.175160
vt 0.884491 0.134959
vt 0.532936 0.474341
vt 0.533427 0.538906
vt 0.548516 0.029819
vt 0.542076 0.091605
vt 0.533293 0.345516
vt 0.532894 0.409853
vt 0.538652 0.732362
vt 0.542548 0.796557
vt 0.536092 0.667987
vt 0.534184 0.281415
vt 0.534434 0.603478
vt 0.548516 0.860590
vt 0.758872 0.088397
vt 0.802928 0.089860
vt 0.782884 0.198931
vt 0.773384 0.198388
vt 0.551198 0.276245
vt 0.548800 0.214307
vt 0.640894 0.219519
vt 0.644332 0.265190
vt 0.813016 0.000488
vt 0.874111 0.013381
vt 0.846427 0.102264
vt 0.713658 0.447234
vt 0.646777 0.427406
vt 0.685843 0.331215
vt 0.732067 0.349604
vt 0.782433 0.452000
vt 0.779243 0.355433
vt 0.848949 0.441691
vt 0.825625 0.349025
vt 0.751372 0.000142
vt 0.909615 0.419760
vt 0.869251 0.330890
vt 0.692862 0.010810
vt 0.715979 0.097781
vt 0.999858 0.210159
vt 0.999858 0.272849
vt 0.906824 0.264058
vt 0.910010 0.218590
vt 0.558246 0.150800
vt 0.580555 0.089771
vt 0.668032 0.131420
vt 0.648850 0.174316
vt 0.791386 0.203352
vt 0.796795 0.211543
vt 0.798642 0.220991
vt 0.795851 0.230403
vt 0.787237 0.237009
vt 0.777456 0.239401
vt 0.767729 0.237265
vt 0.759687 0.230514
vt 0.756697 0.220368
vt 0.758639 0.210535
vt 0.764238 0.202525
vn 0.2393 0.0000 -0.9709
vn 0.6631 0.0000 -0.7485
vn 0.9350 0.0000 -0.3546
vn 0.9927 0.0000 0.1205
vn 0.8230 0.0000 0.5681
vn 0.4647 0.0000 0.8855
vn 0.0000 0.0000 1.0000
vn -0.4647 0.0000 0.8855
vn -0.8230 0.0000 0.5681
vn -0.9927 0.0000 0.1205
vn -0.9350 0.0000 -0.3546
vn 0.8166 0.1245 0.5636
vn -0.6631 0.0000 -0.7485
vn -0.2393 0.0000 -0.9709
vn 0.0000 -1.0000 -0.0000
vn -0.6276 0.3230 -0.7084
vn -0.9850 0.1245 0.1196
vn 0.9277 0.1245 -0.3518
vn -0.4611 0.1245 0.8786
vn 0.2375 0.1245 -0.9634
vn -0.2375 0.1245 -0.9634
vn 0.4611 0.1245 0.8786
vn -0.9277 0.1245 -0.3518
vn 0.9850 0.1245 0.1196
vn -0.8166 0.1245 0.5636
vn 0.6580 0.1245 -0.7427
vn 0.0000 0.1245 0.9922
vn -0.6580 0.1245 -0.7427
vn 0.1890 0.6133 -0.7669
vn 0.7789 0.3230 0.5376
vn -0.2265 0.3230 -0.9189
vn 0.4398 0.3230 0.8380
vn 0.0000 0.3230 0.9464
vn -0.4398 0.3230 0.8380
vn 0.2265 0.3230 -0.9189
vn -0.7789 0.3230 0.5376
vn 0.6276 0.3230 -0.7084
vn -0.9395 0.3230 0.1141
vn 0.8849 0.3230 -0.3356
vn -0.8849 0.3230 -0.3356
vn 0.9395 0.3230 0.1141
vn 0.0000 1.0000 0.0000
vn -0.6501 0.6133 0.4487
vn 0.5238 0.6133 -0.5912
vn -0.7841 0.6133 0.0952
vn 0.7385 0.6133 -0.2801
vn -0.7385 0.6133 -0.2801
vn 0.7841 0.6133 0.0952
vn -0.5238 0.6133 -0.5912
vn 0.6501 0.6133 0.4487
vn -0.1890 0.6133 -0.7669
vn 0.3671 0.6133 0.6994
vn 0.0000 0.6133 0.7899
vn -0.3671 0.6133 0.6994
s off
f 1/1/1 2/2/1 4/3/1 3/4/1
f 3/4/2 4/3/2 6/5/2 5/6/2
f 5/7/3 6/8/3 8/9/3 7/10/3
f 7/10/4 8/9/4 10/11/4 9/12/4
f 9/12/5 10/11/5 12/13/5 11/14/5
f 11/14/6 12/13/6 14/15/6 13/16/6
f 13/16/7 14/15/7 16/17/7 15/18/7
f 15/18/8 16/17/8 18/19/8 17/20/8
f 17/20/9 18/19/9 20/21/9 19/22/9
f 19/22/10 20/21/10 22/23/10 21/24/10
f 21/24/11 22/23/11 24/25/11 23/26/11
f 12/13/12 10/11/12 31/27/12 32/28/12
f 23/26/13 24/25/13 26/29/13 25/30/13
f 25/30/14 26/29/14 2/2/14 1/1/14
f 1/31/15 3/32/15 5/33/15 7/34/15 9/35/15 11/36/15 13/37/15 15/38/15 17/39/15 19/40/15 21/41/15 23/42/15 25/43/15
f 39/44/16 38/45/16 51/46/16 52/47/16
f 22/23/17 20/21/17 36/48/17 37/49/17
f 8/9/18 6/8/18 29/50/18 30/51/18
f 18/19/19 16/17/19 34/52/19 35/53/19
f 4/3/20 2/2/20 28/54/20 27/55/20
f 2/2/21 26/29/21 39/56/21 28/54/21
f 14/15/22 12/13/22 32/28/22 33/57/22
f 24/25/23 22/23/23 37/49/23 38/58/23
f 10/11/24 8/9/24 30/51/24 31/27/24
f 20/21/25 18/19/25 35/53/25 36/48/25
f 6/5/26 4/3/26 27/55/26 29/59/26
f 16/17/27 14/15/27 33/57/27 34/52/27
f 26/29/28 24/25/28 38/58/28 39/56/28
f 40/60/29 41/61/29 54/62/29 53/63/29
f 32/64/30 31/65/30 44/66/30 45/67/30
f 28/68/31 39/69/31 52/70/31 41/61/31
f 33/71/32 32/72/32 45/73/32 46/74/32
f 34/75/33 33/71/33 46/74/33 47/76/33
f 35/77/34 34/75/34 47/76/34 48/78/34
f 27/79/35 28/68/35 41/61/35 40/60/35
f 36/80/36 35/77/36 48/78/36 49/81/36
f 29/82/37 27/79/37 40/60/37 42/83/37
f 37/84/38 36/85/38 49/86/38 50/87/38
f 30/88/39 29/89/39 42/90/39 43/91/39
f 38/45/40 37/84/40 50/87/40 51/46/40
f 31/65/41 30/88/41 43/91/41 44/66/41
f 53/63/42 54/62/42 65/92/42 64/93/42 63/94/42 62/95/42 61/96/42 60/97/42 59/98/42 58/99/42 57/100/42 56/101/42 55/102/42
f 49/81/43 48/78/43 61/96/43 62/95/43
f 42/83/44 40/60/44 53/63/44 55/102/44
f 50/87/45 49/86/45 62/95/45 63/94/45
f 43/91/46 42/90/46 55/102/46 56/101/46
f 51/46/47 50/87/47 63/94/47 64/93/47
f 44/66/48 43/91/48 56/101/48 57/100/48
f 52/47/49 51/46/49 64/93/49 65/92/49
f 45/67/50 44/66/50 57/100/50 58/99/50
f 41/61/51 52/70/51 65/92/51 54/62/51
f 46/74/52 45/73/52 58/99/52 59/98/52
f 47/76/53 46/74/53 59/98/53 60/97/53
f 48/78/54 47/76/54 60/97/54 61/96/54
