# Blender v3.0.0 OBJ File: 'yashik.blend'
# www.blender.org
o Cube
v 1.000000 1.000000 -1.000000
v 1.000000 -1.000000 -1.000000
v 1.000000 1.000000 1.000000
v 1.000000 -1.000000 1.000000
v -1.000000 1.000000 -1.000000
v -1.000000 -1.000000 -1.000000
v -1.000000 1.000000 1.000000
v -1.000000 -1.000000 1.000000
v -1.000000 -1.000000 -0.813187
v 1.000000 1.000000 -0.813187
v -1.000000 1.000000 -0.813187
v 1.000000 -1.000000 -0.813187
v -1.000000 -1.000000 0.814312
v 1.000000 1.000000 0.814312
v -1.000000 1.000000 0.814312
v 1.000000 -1.000000 0.814312
v 1.000000 0.835165 -1.000000
v -1.000000 0.835165 1.000000
v 1.000000 0.835165 1.000000
v -1.000000 0.835165 -1.000000
v 1.000000 0.835165 -0.813187
v -1.000000 0.835165 -0.813187
v -1.000000 0.835165 0.814312
v 1.000000 0.835165 0.814312
v 1.000000 -0.812061 -1.000000
v 1.000000 -0.812061 1.000000
v -1.000000 -0.812061 -1.000000
v 1.000000 -0.812061 -0.813187
v -1.000000 -0.812061 -0.813187
v -1.000000 -0.812061 0.814312
v 1.000000 -0.812061 0.814312
v -1.000000 -0.812061 1.000000
v 0.824176 -1.000000 -1.000000
v 0.824176 1.000000 1.000000
v 0.824176 -1.000000 1.000000
v 0.824176 1.000000 -1.000000
v 0.824176 -1.000000 -0.813187
v 0.824176 1.000000 -0.813187
v 0.824176 -1.000000 0.814312
v 0.824176 1.000000 0.814312
v 0.824176 0.835165 -1.000000
v 0.824176 0.835165 1.000000
v 0.824176 -0.812061 1.000000
v 0.824176 -0.812061 -1.000000
v -0.813187 -1.000000 -1.000000
v -0.813187 1.000000 1.000000
v -0.813187 -1.000000 -0.813187
v -0.813187 -1.000000 0.814312
v -0.813187 0.835165 1.000000
v -0.813187 -0.812061 1.000000
v -0.813187 -1.000000 1.000000
v -0.813187 1.000000 -1.000000
v -0.813187 1.000000 -0.813187
v -0.813187 1.000000 0.814312
v -0.813187 0.835165 -1.000000
v -0.813187 -0.812061 -1.000000
v 0.935396 0.781511 -0.760434
v 0.935396 0.781511 0.761535
v -0.934921 0.781511 0.761535
v -0.934921 0.781511 -0.760434
v 0.935396 -0.758907 -0.760434
v -0.934921 -0.758907 -0.760434
v -0.934921 -0.758907 0.761535
v 0.935396 -0.758907 0.761535
v -0.760221 0.935658 -0.760434
v 0.770972 0.935658 -0.760434
v -0.760221 0.935658 0.761535
v 0.770972 0.935658 0.761535
v -0.760221 0.781511 -0.935134
v 0.770972 0.781511 -0.935134
v -0.760221 -0.758907 -0.935134
v 0.770972 -0.758907 -0.935134
v 0.770972 0.781511 0.935183
v 0.770972 -0.758907 0.935183
v 0.770972 -0.934659 -0.760434
v 0.770972 -0.934659 0.761535
v -0.760221 -0.934659 -0.760434
v -0.760221 -0.934659 0.761535
v -0.760221 0.781511 0.935183
v -0.760221 -0.758907 0.935183
vt 0.801447 0.247311
vt 0.826393 0.247311
vt 0.826393 0.272107
vt 0.801447 0.272107
vt 0.029982 0.250096
vt 0.029982 0.272107
vt 0.005036 0.272107
vt 0.005036 0.250096
vt 0.029982 0.527239
vt 0.029982 0.549250
vt 0.005036 0.549250
vt 0.005036 0.527239
vt 0.525771 0.247311
vt 0.549250 0.247311
vt 0.549250 0.272107
vt 0.525771 0.272107
vt 0.306974 0.527239
vt 0.306974 0.549250
vt 0.282178 0.549250
vt 0.282178 0.527239
vt 0.028514 0.804382
vt 0.028514 0.826393
vt 0.005036 0.826393
vt 0.005036 0.804382
vt 0.549250 0.527239
vt 0.549250 0.549250
vt 0.524304 0.549250
vt 0.524304 0.527239
vt 0.525771 0.005036
vt 0.549250 0.005036
vt 0.549250 0.029982
vt 0.525771 0.029982
vt 0.247311 0.527239
vt 0.247311 0.549250
vt 0.801447 0.005036
vt 0.826393 0.005036
vt 0.826393 0.029982
vt 0.801447 0.029982
vt 0.272107 0.527239
vt 0.272107 0.549250
vt 0.357161 0.992423
vt 0.357161 0.775093
vt 0.365886 0.782138
vt 0.365886 0.985375
vt 0.272107 0.307275
vt 0.247311 0.307275
vt 0.901277 0.005036
vt 0.901277 0.224999
vt 0.892650 0.217835
vt 0.892650 0.012134
vt 0.549250 0.307275
vt 0.524304 0.307275
vt 0.028514 0.584418
vt 0.005036 0.584418
vt 0.306974 0.307275
vt 0.282178 0.307275
vt 0.029982 0.307275
vt 0.005036 0.307275
vt 0.029982 0.030132
vt 0.005036 0.030132
vt 0.029982 0.005036
vt 0.005036 0.005036
vt 0.029982 0.282178
vt 0.005036 0.282178
vt 0.306974 0.282178
vt 0.282178 0.282178
vt 0.028514 0.559321
vt 0.005036 0.559321
vt 0.549250 0.282178
vt 0.524304 0.282178
vt 0.247311 0.282178
vt 0.272107 0.282178
vt 0.247161 0.559321
vt 0.247161 0.584418
vt 0.272107 0.005036
vt 0.272107 0.030132
vt 0.248629 0.030132
vt 0.248629 0.005036
vt 0.272107 0.250096
vt 0.248628 0.250096
vt 0.986372 0.222365
vt 0.986372 0.005036
vt 0.994964 0.012080
vt 0.994964 0.215317
vt 0.559321 0.029982
vt 0.582800 0.029982
vt 0.582800 0.247311
vt 0.559321 0.247311
vt 0.967639 0.223682
vt 0.967639 0.005036
vt 0.976301 0.012140
vt 0.976301 0.216609
vt 0.559321 0.005036
vt 0.582800 0.005036
vt 0.307125 0.005036
vt 0.307125 0.029982
vt 0.247161 0.804382
vt 0.247161 0.826393
vt 0.307125 0.247311
vt 0.307125 0.272107
vt 0.272107 0.272107
vt 0.248628 0.272107
vt 0.582800 0.272107
vt 0.559321 0.272107
vt 0.282178 0.247311
vt 0.282178 0.272107
vt 0.272107 0.804382
vt 0.272107 0.826393
vt 0.282178 0.005036
vt 0.282178 0.029982
vt 0.272107 0.584418
vt 0.272107 0.559321
vt 0.413284 0.992423
vt 0.413284 0.775093
vt 0.421974 0.782138
vt 0.421974 0.985375
vt 0.845126 0.005036
vt 0.845126 0.224999
vt 0.836464 0.217901
vt 0.836464 0.012200
vt 0.762559 0.713723
vt 0.762559 0.919424
vt 0.559321 0.919424
vt 0.559321 0.713723
vt 0.485416 0.559321
vt 0.485416 0.765022
vt 0.282178 0.765022
vt 0.282178 0.559321
vt 0.763791 0.497951
vt 0.763791 0.703652
vt 0.559321 0.703652
vt 0.559321 0.497951
vt 0.975868 0.713723
vt 0.975868 0.918192
vt 0.772630 0.918192
vt 0.772630 0.713723
vt 0.763791 0.282179
vt 0.763791 0.487880
vt 0.559321 0.487880
vt 0.559321 0.282178
vt 0.977099 0.282178
vt 0.977099 0.486648
vt 0.773862 0.486648
vt 0.773862 0.282178
vt 0.338364 0.992423
vt 0.338364 0.775093
vt 0.347090 0.782141
vt 0.347090 0.985379
vt 0.522939 0.559321
vt 0.522939 0.779285
vt 0.514249 0.772187
vt 0.514249 0.566486
vt 0.541672 0.559321
vt 0.541672 0.779285
vt 0.533010 0.772120
vt 0.533010 0.566419
vt 0.282178 0.993740
vt 0.282178 0.775093
vt 0.290840 0.782166
vt 0.290840 0.986636
vt 0.948843 0.223682
vt 0.948843 0.005036
vt 0.957568 0.012140
vt 0.957568 0.216609
vt 0.504178 0.559321
vt 0.504178 0.779285
vt 0.495487 0.772120
vt 0.495487 0.566419
vt 0.432045 0.992423
vt 0.432045 0.775093
vt 0.440735 0.782141
vt 0.440735 0.985379
vt 0.930046 0.223682
vt 0.930046 0.005036
vt 0.938772 0.012108
vt 0.938772 0.216578
vt 0.919975 0.005036
vt 0.919975 0.224999
vt 0.911348 0.217901
vt 0.911348 0.012200
vt 0.384549 0.775093
vt 0.384549 0.993740
vt 0.375957 0.986667
vt 0.375957 0.782198
vt 0.469505 0.992423
vt 0.469505 0.775093
vt 0.478132 0.782141
vt 0.478132 0.985379
vt 0.328293 0.775093
vt 0.328293 0.993740
vt 0.319638 0.986667
vt 0.319638 0.782198
vt 0.882579 0.005036
vt 0.882579 0.224999
vt 0.873924 0.217901
vt 0.873924 0.012200
vt 0.450806 0.992423
vt 0.450806 0.775093
vt 0.459434 0.782138
vt 0.459433 0.985375
vt 0.863853 0.005036
vt 0.863853 0.224999
vt 0.855197 0.217835
vt 0.855197 0.012134
vt 0.309567 0.775094
vt 0.309567 0.993740
vt 0.300911 0.986636
vt 0.300911 0.782166
vt 0.985939 0.931052
vt 0.985939 0.713723
vt 0.994531 0.720770
vt 0.994531 0.924008
vt 0.403212 0.775094
vt 0.403212 0.993740
vt 0.394620 0.986636
vt 0.394620 0.782166
vn 0.0000 1.0000 0.0000
vn 0.0000 0.0000 1.0000
vn -1.0000 0.0000 0.0000
vn 0.0000 -1.0000 0.0000
vn 1.0000 0.0000 0.0000
vn 0.0000 0.0000 -1.0000
vn 0.7768 -0.6297 0.0000
vn 0.6325 0.0000 0.7746
vn -0.7707 0.6372 0.0000
vn 0.0000 -0.7706 -0.6374
vn -0.6361 -0.7716 0.0000
vn -0.7732 0.0000 -0.6342
vn -0.7755 -0.6314 0.0000
vn -0.6297 0.0000 0.7768
vn 0.7746 0.0000 -0.6325
vn 0.0000 0.7735 -0.6338
vn 0.0000 -0.6282 0.7781
vn -0.6299 0.0000 -0.7767
vn -0.6326 0.7745 0.0000
vn 0.0000 -0.6283 -0.7779
vn 0.6327 0.0000 -0.7744
vn 0.0000 0.6340 0.7733
vn 0.6389 -0.7693 0.0000
vn 0.0000 -0.7703 0.6377
vn 0.7743 0.0000 0.6328
vn 0.6354 0.7722 0.0000
vn -0.7730 0.0000 0.6345
vn 0.0000 0.7732 0.6341
vn 0.7721 0.6356 0.0000
vn 0.0000 0.6342 -0.7732
s off
f 54/1/1 15/2/1 7/3/1 46/4/1
f 49/5/2 46/6/2 7/7/2 18/8/2
f 22/9/3 11/10/3 5/11/3 20/12/3
f 39/13/4 16/14/4 4/15/4 35/16/4
f 24/17/5 14/18/5 3/19/5 19/20/5
f 41/21/6 36/22/6 1/23/6 17/24/6
f 17/25/5 1/26/5 10/27/5 21/28/5
f 33/29/4 2/30/4 12/31/4 37/32/4
f 23/33/3 15/34/3 11/10/3 22/9/3
f 52/35/1 5/36/1 11/37/1 53/38/1
f 18/39/3 7/40/3 15/34/3 23/33/3
f 21/28/5 10/27/5 14/18/5 24/17/5
f 37/32/4 12/31/4 16/14/4 39/13/4
f 53/38/1 11/37/1 15/2/1 54/1/1
f 48/41/7 47/42/7 77/43/7 78/44/7
f 32/45/3 18/39/3 23/33/3 30/46/3
f 28/47/8 21/48/8 57/49/8 61/50/8
f 25/51/5 17/25/5 21/28/5 28/52/5
f 44/53/6 41/21/6 17/24/6 25/54/6
f 31/55/5 24/17/5 19/20/5 26/56/5
f 29/57/3 22/9/3 20/12/3 27/58/3
f 50/59/2 49/5/2 18/8/2 32/60/2
f 51/61/2 50/59/2 32/60/2 8/62/2
f 9/63/3 29/57/3 27/58/3 6/64/3
f 16/65/5 31/55/5 26/56/5 4/66/5
f 33/67/6 44/53/6 25/54/6 2/68/6
f 2/69/5 25/51/5 28/52/5 12/70/5
f 13/71/3 30/46/3 29/57/3 9/63/3
f 8/72/3 32/45/3 30/46/3 13/71/3
f 12/70/5 28/52/5 31/55/5 16/65/5
f 45/73/6 56/74/6 44/53/6 33/67/6
f 4/75/2 26/76/2 43/77/2 35/78/2
f 26/76/2 19/79/2 42/80/2 43/77/2
f 40/81/9 38/82/9 66/83/9 68/84/9
f 10/85/1 38/86/1 40/87/1 14/88/1
f 55/89/10 41/90/10 70/91/10 69/92/10
f 1/93/1 36/94/1 38/86/1 10/85/1
f 45/95/4 33/29/4 37/32/4 47/96/4
f 55/97/6 52/98/6 36/22/6 41/21/6
f 48/99/4 39/13/4 35/16/4 51/100/4
f 19/79/2 3/101/2 34/102/2 42/80/2
f 14/88/1 40/87/1 34/103/1 3/104/1
f 13/105/4 48/99/4 51/100/4 8/106/4
f 20/107/6 5/108/6 52/98/6 55/97/6
f 6/109/4 45/95/4 47/96/4 9/110/4
f 9/110/4 47/96/4 48/99/4 13/105/4
f 27/111/6 20/107/6 55/97/6 56/74/6
f 6/112/6 27/111/6 56/74/6 45/73/6
f 35/78/2 43/77/2 50/59/2 51/61/2
f 23/113/11 22/114/11 60/115/11 59/116/11
f 41/117/12 44/118/12 72/119/12 70/120/12
f 36/94/1 52/35/1 53/38/1 38/86/1
f 42/80/2 34/102/2 46/6/2 49/5/2
f 40/87/1 54/1/1 46/4/1 34/103/1
f 61/121/5 57/122/5 58/123/5 64/124/5
f 63/125/3 59/126/3 60/127/3 62/128/3
f 71/129/6 69/130/6 70/131/6 72/132/6
f 77/133/4 75/134/4 76/135/4 78/136/4
f 74/137/2 73/138/2 79/139/2 80/140/2
f 66/141/1 65/142/1 67/143/1 68/144/1
f 37/145/13 39/146/13 76/147/13 75/148/13
f 22/149/14 29/150/14 62/151/14 60/152/14
f 56/153/15 55/154/15 69/155/15 71/156/15
f 44/157/16 56/158/16 71/159/16 72/160/16
f 47/161/17 37/162/17 75/163/17 77/164/17
f 30/165/18 23/166/18 59/167/18 63/168/18
f 29/169/19 30/170/19 63/171/19 62/172/19
f 39/173/20 48/174/20 78/175/20 76/176/20
f 24/177/21 31/178/21 64/179/21 58/180/21
f 38/181/22 53/182/22 65/183/22 66/184/22
f 21/185/23 24/186/23 58/187/23 57/188/23
f 42/189/24 49/190/24 79/191/24 73/192/24
f 49/193/25 50/194/25 80/195/25 79/196/25
f 31/197/26 28/198/26 61/199/26 64/200/26
f 43/201/27 42/202/27 73/203/27 74/204/27
f 50/205/28 43/206/28 74/207/28 80/208/28
f 53/209/29 54/210/29 67/211/29 65/212/29
f 54/213/30 40/214/30 68/215/30 67/216/30
